<svg xmlns="http://www.w3.org/2000/svg" width="1387" height="756" viewBox="0 0 1387 756">
<g>
<path d="M 379.25 498.51 C348.47,503.88 315.41,494.13 296.77,474.19 C281.35,457.69 273.75,435.61 273.80,407.50 C273.83,395.68 274.24,391.98 276.43,383.69 C281.58,364.24 287.74,353.03 299.90,340.99 C305.08,335.87 310.91,331.21 314.55,329.29 C329.89,321.19 350.36,317.15 369.68,318.40 C406.93,320.80 431.36,340.23 441.50,375.50 C444.40,385.60 446.24,404.58 445.30,414.66 L 444.71 421.00 L 326.32 421.00 L 327.23 427.25 C328.37,435.07 332.64,444.49 337.50,449.86 C343.14,456.11 352.38,460.24 361.94,460.79 C374.80,461.53 384.67,456.69 390.15,446.96 L 392.37 443.00 L 417.68 443.00 C435.26,443.00 443.00,443.33 443.00,444.09 C443.00,444.69 441.39,448.85 439.41,453.33 C428.48,478.20 408.13,493.48 379.25,498.51 ZM 249.00 245.00 L 249.00 496.00 L 222.67 496.00 C208.18,496.00 196.03,495.70 195.67,495.33 C195.30,494.97 195.00,438.49 195.00,369.83 L 195.00 245.00 ZM 524.12 482.75 L 524.00 495.00 L 471.00 495.00 L 471.00 322.00 L 524.00 322.00 L 524.16 370.25 C524.33,420.23 524.31,461.57 524.12,482.75 ZM 328.00 386.68 L 328.00 389.00 L 392.00 389.00 L 391.99 386.25 C391.98,384.74 391.38,381.25 390.64,378.50 C386.97,364.77 379.54,357.50 366.78,355.14 C353.25,352.64 340.14,358.24 333.68,369.29 C330.98,373.91 328.00,383.03 328.00,386.68 Z" fill="rgb(41,44,49)"/>
<path d="M 748.25 499.60 C746.74,499.66 743.47,499.96 741.00,500.27 C729.19,501.76 702.80,493.97 696.68,487.20 C695.68,486.09 693.65,484.68 692.18,484.07 C690.70,483.45 688.43,481.05 687.12,478.73 C679.30,464.87 677.10,457.25 676.92,443.42 C676.82,435.98 677.24,433.34 679.47,427.50 C684.85,413.43 692.78,404.56 705.39,398.55 C721.33,390.95 736.22,388.09 765.00,387.12 L 783.50 386.50 L 783.79 379.29 C784.13,371.04 781.78,364.08 777.16,359.66 C770.54,353.31 755.72,352.01 745.46,356.86 C739.01,359.91 736.41,362.90 734.47,369.48 L 733.28 373.50 L 708.62 373.77 C688.39,373.99 683.86,373.79 683.42,372.66 C682.60,370.51 685.76,358.27 688.60,352.61 C701.18,327.55 728.03,316.23 769.50,318.50 C784.79,319.33 794.51,321.59 805.50,326.85 C819.17,333.39 826.95,341.99 832.53,356.72 C836.49,367.17 836.92,372.50 837.00,411.73 C837.03,432.51 837.55,459.54 838.13,471.82 C838.72,484.09 838.98,494.36 838.71,494.63 C837.98,495.35 791.40,495.36 790.23,494.64 C789.68,494.30 788.92,491.88 788.54,489.26 C787.77,483.89 787.50,481.37 786.52,481.06 C785.71,480.80 784.41,482.06 781.92,484.47 C781.67,484.72 781.40,484.98 781.12,485.25 C774.51,491.64 767.09,495.40 757.75,497.11 C754.04,497.79 751.00,498.61 751.00,498.92 C751.00,499.24 749.76,499.55 748.25,499.60 ZM 610.00 494.70 C608.20,495.62 601.02,495.97 584.27,495.99 C561.28,496.00 561.03,495.98 559.59,493.75 C558.35,491.83 558.13,479.07 558.07,406.75 L 558.01 322.00 L 609.72 322.00 L 610.36 328.15 C610.71,331.53 611.00,337.12 611.00,340.56 C611.00,350.52 611.79,351.09 615.64,343.87 C619.92,335.87 624.80,330.84 633.00,325.99 C641.32,321.06 648.38,319.10 659.00,318.77 L 667.50 318.50 L 667.77 342.25 L 668.04 366.00 L 659.23 366.00 C640.41,366.00 626.59,373.22 619.67,386.66 C617.45,390.97 614.30,403.12 613.37,411.00 C612.94,414.58 612.57,434.59 612.55,455.47 L 612.50 493.44 ZM 524.77 270.23 L 524.50 296.50 L 498.50 296.74 C484.20,296.88 471.93,296.62 471.23,296.17 C470.25,295.54 470.03,289.60 470.23,269.93 L 470.50 244.50 L 497.77 244.23 L 525.03 243.97 ZM 748.78 462.91 C768.87,465.85 781.37,455.06 784.16,432.40 C784.89,426.47 784.95,422.35 784.32,420.47 L 783.37 417.60 L 773.43 417.85 C750.42,418.42 738.80,421.43 733.74,428.13 C727.45,436.47 727.64,448.10 734.20,455.58 C738.19,460.11 741.69,461.88 748.78,462.91 ZM 951.81 407.57 L 951.50 412.50 L 913.21 412.76 L 874.91 413.02 L 875.21 405.76 L 875.50 398.50 L 913.23 398.24 L 950.96 397.98 L 951.54 400.30 C951.86,401.58 951.98,404.85 951.81,407.57 Z" fill="rgb(76,212,234)"/>
<path d="M 524.12 482.75 C524.31,461.57 524.33,420.23 524.16,370.25 L 524.00 322.00 L 483.60 322.00 L 496.74 321.79 C511.46,321.56 523.84,321.54 524.25,321.74 C524.66,321.95 525.00,343.58 525.00,369.81 L 525.00 417.50 L 541.50 417.20 L 558.00 416.91 L 558.00 322.00 L 558.01 322.00 L 558.07 406.75 C558.13,479.07 558.35,491.83 559.59,493.75 C561.03,495.98 561.28,496.00 584.27,495.99 C601.02,495.97 608.20,495.62 610.00,494.70 L 612.50 493.44 L 612.55 455.47 C612.57,440.06 612.77,425.12 613.05,416.91 L 640.84 417.20 C672.56,417.54 672.39,417.50 676.65,425.82 L 678.66 429.74 C677.14,434.15 676.83,437.00 676.92,443.42 C677.08,456.21 678.98,463.69 685.44,475.70 C684.24,473.82 682.98,471.54 682.56,470.50 C682.13,469.40 681.59,468.97 681.37,469.55 C680.93,470.69 691.43,507.06 693.08,510.14 C694.61,513.02 696.00,512.34 696.00,508.72 C696.00,504.63 689.81,484.70 686.56,477.74 C686.74,478.07 686.93,478.39 687.12,478.73 C688.43,481.05 690.70,483.45 692.18,484.07 C693.65,484.68 695.66,486.08 696.67,487.19 C694.44,485.24 694.67,486.31 697.55,495.76 C698.96,500.37 700.42,503.97 700.80,503.76 C701.19,503.56 704.65,501.89 708.50,500.06 L 715.50 496.73 L 711.95 495.48 C709.86,494.75 707.58,493.78 705.41,492.72 C716.02,497.51 732.39,501.35 741.00,500.27 C743.47,499.96 746.74,499.66 748.25,499.60 C749.76,499.55 751.00,499.24 751.00,498.92 C751.00,498.61 754.04,497.79 757.75,497.11 C767.09,495.40 774.51,491.64 781.12,485.25 C781.40,484.98 781.67,484.72 781.92,484.47 C784.41,482.06 785.71,480.80 786.52,481.06 C787.50,481.37 787.77,483.89 788.54,489.26 C788.92,491.88 789.68,494.30 790.23,494.64 C791.40,495.36 837.98,495.35 838.71,494.63 C838.98,494.36 838.72,484.09 838.13,471.82 C837.55,459.54 837.03,432.51 837.00,411.73 C836.92,372.50 836.49,367.17 832.53,356.72 C827.10,342.40 819.60,333.87 806.63,327.40 C810.21,329.13 813.37,330.94 815.45,332.53 L 818.88 335.15 L 821.09 330.82 C822.30,328.45 826.39,323.30 830.19,319.38 L 837.09 312.26 L 834.60 306.63 C833.23,303.53 831.68,301.00 831.16,301.00 C830.64,301.00 826.90,302.56 822.85,304.46 C811.89,309.63 807.02,310.68 801.25,309.16 C798.62,308.47 795.19,306.61 793.57,305.00 C791.95,303.40 787.37,295.21 783.39,286.80 C776.37,271.99 776.01,271.45 772.04,269.95 C766.61,267.89 764.00,265.53 764.00,262.68 C764.00,261.40 765.17,257.01 766.59,252.93 C769.98,243.22 770.13,234.44 767.10,222.50 C765.18,214.92 764.87,211.49 765.16,200.79 L 765.50 188.08 L 759.87 186.03 C750.37,182.57 742.07,171.62 746.49,168.38 C747.98,167.29 748.09,166.62 747.18,164.29 C746.09,161.49 745.70,157.95 745.89,152.67 C745.96,150.95 747.20,148.65 749.07,146.78 L 752.13 143.71 L 761.09 144.29 L 770.05 144.87 L 768.02 142.30 C765.62,139.25 765.38,135.45 767.54,134.62 C768.39,134.30 773.90,134.05 779.79,134.08 C792.01,134.13 794.88,133.60 812.63,127.96 C833.92,121.20 846.22,120.70 860.38,126.03 C866.88,128.47 873.15,133.54 874.90,137.76 C875.79,139.92 877.26,140.86 881.77,142.19 C892.32,145.30 900.74,154.98 905.17,169.07 C909.84,183.96 907.67,208.08 899.01,237.37 C897.36,242.94 895.36,251.26 894.57,255.87 L 893.12 264.23 L 896.81 274.17 C900.50,284.11 900.50,284.12 903.50,283.53 C905.15,283.20 911.00,282.47 916.50,281.90 C927.23,280.79 934.97,281.28 944.44,283.66 C960.60,287.72 965.95,295.03 964.55,311.14 C963.89,318.69 963.92,318.84 967.50,324.44 C972.65,332.48 974.00,337.07 973.97,346.38 C973.96,352.21 973.29,356.43 971.61,361.36 C969.32,368.09 969.31,368.30 971.03,372.86 C975.40,384.38 983.97,426.57 985.60,444.54 C986.19,451.07 986.52,452.00 988.25,452.00 C989.99,452.00 990.14,451.55 989.52,448.28 C989.14,446.23 988.84,417.54 988.85,384.53 L 988.87 324.50 L 1004.50 324.50 L 1005.07 384.50 C1005.55,436.23 1005.86,445.36 1007.31,450.76 C1013.40,473.56 1028.39,484.00 1055.00,484.00 C1067.32,484.00 1074.55,482.41 1084.64,477.48 C1097.31,471.30 1105.43,460.43 1110.27,443.20 C1112.33,435.86 1112.45,432.94 1112.96,380.00 L 1113.50 324.50 L 1129.50 324.50 L 1130.04 409.50 C1130.40,467.56 1130.24,494.75 1129.54,495.30 C1128.38,496.20 1116.25,495.58 1115.24,494.58 C1114.89,494.22 1114.35,487.76 1114.05,480.21 L 1113.50 466.50 L 1110.68 471.30 C1103.46,483.58 1089.21,492.96 1071.57,497.03 C1063.54,498.89 1060.03,499.16 1049.27,498.76 C1034.15,498.20 1024.01,495.39 1014.17,489.03 C1010.78,486.84 1008.00,485.24 1008.00,485.47 C1008.00,486.32 995.91,543.79 992.54,559.00 C990.64,567.53 987.93,579.90 986.50,586.50 C985.07,593.10 983.49,600.08 982.98,602.01 L 982.05 605.52 L 883.48 605.51 L 784.91 605.50 L 785.45 602.00 C785.89,599.13 788.00,578.76 788.00,577.39 C788.00,577.18 754.03,577.00 712.50,577.00 L 637.00 577.00 L 636.98 584.25 C636.96,591.77 635.99,605.22 635.42,605.87 C635.23,606.08 634.39,605.98 633.54,605.65 C632.37,605.20 632.00,603.50 632.00,598.53 C632.00,592.23 631.91,592.00 629.50,592.00 C628.12,592.00 627.00,592.49 627.00,593.09 C627.00,593.83 625.38,593.97 622.05,593.51 L 617.10 592.83 L 616.80 599.15 C616.56,604.24 616.16,605.55 614.75,605.81 C613.15,606.12 613.00,604.91 613.00,591.57 L 613.00 577.00 L 501.24 577.00 L 500.53 590.34 C499.79,604.02 499.20,606.57 496.92,605.81 C496.01,605.50 495.70,603.68 495.88,599.75 L 496.14 594.12 L 489.39 592.04 C485.68,590.89 482.30,590.30 481.87,590.73 C481.45,591.15 480.97,594.65 480.80,598.50 C480.53,604.91 480.31,605.53 478.23,605.82 C476.13,606.12 475.99,605.84 476.44,602.32 C476.70,600.22 477.18,593.68 477.49,587.78 L 478.06 577.06 L 451.50 576.50 L 451.50 555.50 L 549.05 554.98 L 547.05 552.24 C545.95,550.73 543.06,542.30 540.63,533.50 C538.20,524.70 533.80,509.17 530.85,499.00 L 525.50 480.50 L 524.50 495.50 L 470.50 495.50 L 470.24 408.86 L 469.99 322.22 L 471.00 322.20 L 471.00 495.00 L 524.00 495.00 ZM 840.00 308.85 C840.00,310.55 841.14,310.27 845.02,307.64 C856.22,300.03 878.71,289.68 889.75,287.05 C892.64,286.36 895.23,285.43 895.51,284.98 C895.79,284.53 894.37,280.12 892.36,275.19 L 888.70 266.22 L 883.08 266.73 C871.67,267.76 858.13,262.79 850.14,254.64 L 845.78 250.20 L 841.37 251.70 C838.95,252.52 836.30,252.94 835.48,252.63 C833.77,251.98 833.46,249.00 835.10,249.00 C835.70,249.00 837.71,248.28 839.55,247.41 C847.30,243.73 850.24,227.15 844.79,217.89 C841.35,212.04 837.17,210.00 833.53,212.39 C830.43,214.42 828.32,218.43 826.93,224.91 C825.78,230.23 823.91,231.70 819.62,230.62 C817.96,230.20 816.82,228.44 815.13,223.66 C812.25,215.51 811.04,213.83 804.52,209.01 C798.14,204.30 796.60,200.60 797.19,191.40 C797.59,185.10 797.55,185.00 795.05,185.01 C793.65,185.01 790.70,185.51 788.50,186.13 C786.30,186.74 781.35,187.52 777.50,187.87 L 770.50 188.50 L 769.69 194.50 C768.61,202.46 769.55,216.40 771.55,222.00 C772.44,224.47 773.39,230.32 773.66,235.00 C774.10,242.52 773.80,244.59 771.11,253.00 C767.69,263.69 767.75,263.89 774.84,265.90 C778.64,266.98 779.41,267.70 781.13,271.82 C782.21,274.39 783.47,277.17 783.94,278.00 C785.09,280.06 789.39,279.57 793.05,276.97 C794.76,275.74 796.77,275.08 797.69,275.44 C799.07,275.97 798.90,276.50 796.54,278.96 C795.01,280.55 792.47,282.39 790.88,283.05 C789.30,283.71 788.00,284.76 788.00,285.40 C788.00,286.04 789.55,289.78 791.44,293.72 C794.34,299.78 795.54,301.23 799.19,303.09 C803.16,305.12 803.96,305.20 809.31,304.10 C812.50,303.44 818.57,301.32 822.79,299.40 C827.15,297.41 831.35,296.12 832.51,296.41 C834.42,296.89 840.00,306.16 840.00,308.85 ZM 1193.75 495.06 C1191.96,495.10 1188.70,495.32 1186.50,495.56 C1184.30,495.80 1181.93,495.63 1181.24,495.19 C1180.25,494.54 1180.04,476.72 1180.24,409.44 L 1180.50 324.50 L 1197.00 323.92 L 1197.00 495.00 ZM 455.00 559.00 L 455.00 573.00 L 626.00 573.00 L 626.00 559.00 ZM 630.00 558.96 L 630.00 572.94 L 701.96 572.93 C747.06,572.93 774.15,572.57 774.52,571.96 C774.86,571.41 773.50,571.00 771.31,571.00 C766.00,571.00 734.74,565.50 721.50,562.24 C710.59,559.55 710.17,559.53 670.25,559.24 ZM 662.00 537.48 C671.29,542.29 673.21,542.93 678.60,542.96 L 684.71 543.00 L 684.23 537.99 C683.61,531.56 685.59,524.53 689.19,520.43 L 692.03 517.20 L 687.77 515.69 C685.42,514.87 680.02,512.71 675.76,510.90 C668.13,507.67 667.97,507.64 664.48,509.31 C662.47,510.27 658.45,511.02 655.22,511.04 C652.07,511.05 648.38,511.70 647.00,512.47 C644.67,513.77 644.95,513.85 651.00,513.68 C656.16,513.54 657.50,513.81 657.50,514.98 C657.50,516.08 655.44,516.73 649.49,517.49 C641.68,518.50 637.37,520.44 634.02,524.48 C631.87,527.06 633.28,527.06 638.89,524.46 C644.45,521.88 653.32,521.09 654.54,523.07 C655.57,524.74 654.44,525.27 647.97,526.16 C640.73,527.15 636.75,529.02 631.75,533.81 C628.41,537.01 626.73,541.02 628.75,540.99 C629.16,540.98 632.39,538.96 635.93,536.49 C644.96,530.18 648.16,530.31 662.00,537.48 ZM 951.81 407.57 C951.98,404.85 951.86,401.58 951.54,400.30 L 950.96 397.98 L 913.23 398.24 L 875.50 398.50 L 875.21 405.76 L 874.91 413.02 L 913.21 412.76 L 951.50 412.50 ZM 565.51 554.21 C580.65,554.70 642.45,553.84 643.22,553.13 C643.62,552.76 644.07,551.34 644.22,549.98 L 644.50 547.50 L 558.02 547.03 L 556.36 549.57 C555.37,551.08 555.07,552.47 555.61,553.01 C556.11,553.51 560.56,554.05 565.51,554.21 ZM 1198.05 258.00 L 1197.50 287.50 L 1188.25 287.79 L 1179.00 288.08 L 1179.00 258.00 ZM 549.62 546.78 C551.11,549.11 553.00,548.97 553.00,546.54 C553.00,545.35 545.80,519.95 530.37,466.69 L 525.50 449.88 L 525.21 456.30 C524.97,461.51 525.76,465.64 529.37,478.11 C531.82,486.58 537.05,504.98 540.98,519.00 C544.92,533.03 548.81,545.53 549.62,546.78 ZM 673.23 444.00 L 676.50 454.50 L 676.79 448.40 C677.11,441.87 674.28,429.61 671.47,425.32 C670.61,423.99 668.76,422.48 667.38,421.96 C664.57,420.89 630.19,420.67 619.75,421.65 C614.07,422.19 613.00,422.58 613.00,424.14 C613.00,425.91 614.37,426.00 639.94,426.00 C666.65,426.00 666.90,426.02 668.44,428.22 C669.30,429.44 669.99,431.13 669.98,431.97 C669.97,432.81 671.43,438.23 673.23,444.00 ZM 700.00 512.10 C700.00,513.99 703.64,512.85 710.18,508.89 C717.56,504.43 720.48,504.26 724.55,508.06 C726.41,509.80 727.64,509.92 737.72,509.34 C747.83,508.76 748.89,508.52 749.38,506.65 C749.68,505.51 749.75,504.42 749.55,504.21 C748.18,502.85 732.20,499.74 726.00,499.63 C719.68,499.52 717.59,499.94 712.75,502.28 C706.96,505.08 700.00,510.44 700.00,512.10 ZM 709.20 520.23 L 706.90 522.73 L 712.17 521.37 C715.12,520.60 727.36,519.59 739.97,519.08 C752.36,518.57 763.25,517.86 764.16,517.50 C765.60,516.94 767.63,512.29 766.80,511.47 C766.63,511.30 761.33,511.79 755.00,512.54 C748.67,513.30 738.10,513.94 731.50,513.98 C718.42,514.05 713.67,515.38 709.20,520.23 ZM 648.83 550.35 L 648.40 554.00 L 674.95 553.93 C698.11,553.87 700.91,553.71 696.85,552.61 C694.29,551.92 691.01,550.58 689.56,549.63 C687.39,548.21 683.55,547.79 668.08,547.30 L 649.25 546.70 ZM 771.00 513.21 C771.00,515.29 771.18,517.00 771.40,517.00 C773.70,517.00 783.45,494.84 785.48,485.00 L 786.21 481.50 L 781.56 486.00 C777.55,489.89 776.51,491.78 773.96,499.96 C772.33,505.16 771.00,511.13 771.00,513.21 ZM 525.00 421.00 L 525.00 426.00 L 541.50 426.00 C556.97,426.00 558.00,425.88 558.00,424.12 C558.00,421.55 554.52,421.00 538.38,421.00 ZM 790.12 215.75 C789.30,217.21 787.70,217.50 780.49,217.50 C775.73,217.50 771.65,217.31 771.42,217.08 C770.19,215.86 771.36,213.86 774.17,212.41 C777.53,210.67 783.19,210.86 788.30,212.88 C790.58,213.78 790.92,214.32 790.12,215.75 ZM 824.37 338.52 C825.14,340.52 826.01,340.38 829.28,337.75 C832.27,335.33 833.80,329.58 832.11,327.06 C831.33,325.90 830.87,325.86 829.63,326.90 C827.35,328.78 823.72,336.82 824.37,338.52 ZM 638.50 507.00 C639.04,507.88 640.98,508.02 645.38,507.51 C648.74,507.12 653.94,506.74 656.92,506.65 C660.24,506.56 662.49,506.02 662.75,505.25 C663.07,504.30 660.46,504.00 651.83,504.02 C640.38,504.03 637.12,504.76 638.50,507.00 ZM 645.00 467.50 C645.00,468.75 646.94,469.00 656.50,469.00 C666.06,469.00 668.00,468.75 668.00,467.50 C668.00,466.25 666.06,466.00 656.50,466.00 C646.94,466.00 645.00,466.25 645.00,467.50 ZM 618.00 496.50 C618.00,497.74 619.89,498.00 629.00,498.00 C638.11,498.00 640.00,497.74 640.00,496.50 C640.00,495.26 638.11,495.00 629.00,495.00 C619.89,495.00 618.00,495.26 618.00,496.50 ZM 783.42 239.39 C782.55,239.73 781.66,240.00 781.45,240.00 C780.46,240.00 778.92,235.64 778.72,232.26 C778.53,229.04 778.82,228.45 780.75,228.18 C782.41,227.94 783.26,228.55 784.00,230.50 C785.50,234.46 785.23,238.70 783.42,239.39 ZM 583.67 498.33 C584.03,498.70 586.73,499.00 589.67,499.00 C593.74,499.00 595.00,498.65 595.00,497.50 C595.00,496.33 593.67,496.00 589.00,496.00 C583.46,496.00 581.98,496.65 583.67,498.33 ZM 827.47 345.96 C828.48,347.58 829.75,347.20 831.44,344.78 C833.51,341.83 833.41,341.08 831.03,341.70 C828.52,342.36 826.64,344.61 827.47,345.96 ZM 680.73 424.41 C682.83,418.70 686.11,413.60 690.51,409.15 C686.55,413.34 683.36,418.35 680.73,424.41 ZM 736.32 320.10 C713.30,324.20 697.44,335.02 688.60,352.61 C696.30,337.28 709.07,327.27 727.71,321.94 C730.23,321.22 733.14,320.60 736.32,320.10 ZM 795.69 322.86 C788.12,320.35 780.16,319.08 769.50,318.50 C777.27,318.85 784.51,319.72 790.00,321.12 C791.77,321.57 793.70,322.17 795.69,322.86 ZM 705.42 398.54 C709.73,396.36 714.52,394.49 719.78,392.94 C714.82,394.43 710.17,396.27 705.42,398.54 ZM 613.20 413.33 C613.25,412.28 613.31,411.49 613.37,411.00 C613.85,406.95 614.91,401.77 616.14,397.11 C614.92,401.76 613.89,406.87 613.48,410.70 ZM 731.89 390.07 C733.18,389.83 734.49,389.61 735.82,389.40 C736.94,389.23 738.33,389.05 739.91,388.88 C737.09,389.22 734.43,389.62 731.89,390.07 Z" fill="rgb(181,187,189)"/>
<path d="M 0.00 378.00 L 0.00 0.00 L 693.50 0.00 L 1387.00 0.00 L 1387.00 378.00 L 1387.00 756.00 L 693.50 756.00 L 0.00 756.00 L 0.00 378.00 ZM 480.80 598.50 C480.97,594.65 481.45,591.15 481.87,590.73 C482.30,590.30 485.68,590.89 489.39,592.04 L 496.14 594.12 L 495.88 599.75 C495.70,603.68 496.01,605.50 496.92,605.81 C499.20,606.57 499.79,604.02 500.53,590.34 L 501.24 577.00 L 557.12 577.00 L 613.00 577.00 L 613.00 591.57 C613.00,604.91 613.15,606.12 614.75,605.81 C616.16,605.55 616.56,604.24 616.80,599.15 L 617.10 592.83 L 622.05 593.51 C625.38,593.97 627.00,593.83 627.00,593.09 C627.00,592.49 628.12,592.00 629.50,592.00 C631.91,592.00 632.00,592.23 632.00,598.53 C632.00,603.50 632.37,605.20 633.54,605.65 C634.39,605.98 635.23,606.08 635.42,605.87 C635.99,605.22 636.96,591.77 636.98,584.25 L 637.00 577.00 L 712.50 577.00 C754.03,577.00 788.00,577.18 788.00,577.39 C788.00,578.76 785.89,599.13 785.45,602.00 L 784.91 605.50 L 883.48 605.51 L 982.05 605.52 L 982.98 602.01 C983.49,600.08 985.07,593.10 986.50,586.50 C987.93,579.90 990.64,567.53 992.54,559.00 C995.91,543.79 1008.00,486.32 1008.00,485.47 C1008.00,485.24 1010.78,486.84 1014.17,489.03 C1024.01,495.39 1034.15,498.20 1049.27,498.76 C1060.03,499.16 1063.54,498.89 1071.57,497.03 C1089.21,492.96 1103.46,483.58 1110.68,471.30 L 1113.50 466.50 L 1114.05 480.21 C1114.35,487.76 1114.89,494.22 1115.24,494.58 C1116.25,495.58 1128.38,496.20 1129.54,495.30 C1130.24,494.75 1130.40,467.56 1130.04,409.50 L 1129.50 324.50 L 1121.50 324.50 L 1113.50 324.50 L 1112.96 380.00 C1112.45,432.94 1112.33,435.86 1110.27,443.20 C1105.43,460.43 1097.31,471.30 1084.64,477.48 C1074.55,482.41 1067.32,484.00 1055.00,484.00 C1028.39,484.00 1013.40,473.56 1007.31,450.76 C1005.86,445.36 1005.55,436.23 1005.07,384.50 L 1004.50 324.50 L 996.69 324.50 L 988.87 324.50 L 988.85 384.53 C988.84,417.54 989.14,446.23 989.52,448.28 C990.14,451.55 989.99,452.00 988.25,452.00 C986.52,452.00 986.19,451.07 985.60,444.54 C983.97,426.57 975.40,384.38 971.03,372.86 C969.31,368.30 969.32,368.09 971.61,361.36 C973.29,356.43 973.96,352.21 973.97,346.38 C974.00,337.07 972.65,332.48 967.50,324.44 C963.92,318.84 963.89,318.69 964.55,311.14 C965.95,295.03 960.60,287.72 944.44,283.66 C934.97,281.28 927.23,280.79 916.50,281.90 C911.00,282.47 905.15,283.20 903.50,283.53 C900.50,284.12 900.50,284.11 896.81,274.17 L 893.12 264.23 L 894.57 255.87 C895.36,251.26 897.36,242.94 899.01,237.37 C907.67,208.08 909.84,183.96 905.17,169.07 C900.74,154.98 892.32,145.30 881.77,142.19 C877.26,140.86 875.79,139.92 874.90,137.76 C873.15,133.54 866.88,128.47 860.38,126.03 C846.22,120.70 833.92,121.20 812.63,127.96 C794.88,133.60 792.01,134.13 779.79,134.08 C773.90,134.05 768.39,134.30 767.54,134.62 C765.38,135.45 765.62,139.25 768.02,142.30 L 770.05 144.87 L 761.09 144.29 L 752.13 143.71 L 749.07 146.78 C747.20,148.65 745.96,150.95 745.89,152.67 C745.70,157.95 746.09,161.49 747.18,164.29 C748.09,166.62 747.98,167.29 746.49,168.38 C742.07,171.62 750.37,182.57 759.87,186.03 L 765.50 188.08 L 765.16 200.79 C764.87,211.49 765.18,214.92 767.10,222.50 C770.13,234.44 769.98,243.22 766.59,252.93 C765.17,257.01 764.00,261.40 764.00,262.68 C764.00,265.53 766.61,267.89 772.04,269.95 C776.01,271.45 776.37,271.99 783.39,286.80 C787.37,295.21 791.95,303.40 793.57,305.00 C795.19,306.61 798.62,308.47 801.25,309.16 C807.02,310.68 811.89,309.63 822.85,304.46 C826.90,302.56 830.64,301.00 831.16,301.00 C831.68,301.00 833.23,303.53 834.60,306.63 L 837.09 312.26 L 830.19 319.38 C826.39,323.30 822.30,328.45 821.09,330.82 L 818.88 335.15 L 815.45 332.53 C810.27,328.58 798.42,323.27 790.00,321.12 C774.07,317.06 743.36,317.47 727.71,321.94 C709.07,327.27 696.30,337.28 688.60,352.61 C685.76,358.27 682.60,370.51 683.42,372.66 C683.86,373.79 688.39,373.99 708.62,373.77 L 733.28 373.50 L 734.47 369.48 C736.41,362.90 739.01,359.91 745.46,356.86 C755.72,352.01 770.54,353.31 777.16,359.66 C781.78,364.08 784.13,371.04 783.79,379.29 L 783.50 386.50 L 765.00 387.12 C754.83,387.47 741.70,388.49 735.82,389.40 C705.96,394.04 686.84,406.44 680.39,425.37 L 678.80 430.02 L 676.65 425.82 C672.39,417.50 672.56,417.54 640.84,417.20 L 612.81 416.91 L 613.48 410.70 C614.27,403.26 617.42,391.02 619.67,386.66 C626.59,373.22 640.41,366.00 659.23,366.00 L 668.04 366.00 L 667.77 342.25 L 667.50 318.50 L 659.00 318.77 C648.38,319.10 641.32,321.06 633.00,325.99 C624.80,330.84 619.92,335.87 615.64,343.87 C611.79,351.09 611.00,350.52 611.00,340.56 C611.00,337.12 610.71,331.53 610.36,328.15 L 609.72 322.00 L 583.86 322.00 L 558.00 322.00 L 558.00 369.45 L 558.00 416.91 L 541.50 417.20 L 525.00 417.50 L 525.00 369.81 C525.00,343.58 524.66,321.95 524.25,321.74 C523.84,321.54 511.46,321.56 496.74,321.79 L 469.99 322.22 L 470.24 408.86 L 470.50 495.50 L 497.50 495.50 L 524.50 495.50 L 525.00 488.00 L 525.50 480.50 L 530.85 499.00 C533.80,509.17 538.20,524.70 540.63,533.50 C543.06,542.30 545.95,550.73 547.05,552.24 L 549.05 554.98 L 500.27 555.24 L 451.50 555.50 L 451.50 566.00 L 451.50 576.50 L 464.78 576.78 L 478.06 577.06 L 477.49 587.78 C477.18,593.68 476.70,600.22 476.44,602.32 C475.99,605.84 476.13,606.12 478.23,605.82 C480.31,605.53 480.53,604.91 480.80,598.50 ZM 379.25 498.51 C408.13,493.48 428.48,478.20 439.41,453.33 C441.39,448.85 443.00,444.69 443.00,444.09 C443.00,443.33 435.26,443.00 417.68,443.00 L 392.37 443.00 L 390.15 446.96 C384.67,456.69 374.80,461.53 361.94,460.79 C352.38,460.24 343.14,456.11 337.50,449.86 C332.64,444.49 328.37,435.07 327.23,427.25 L 326.32 421.00 L 385.52 421.00 L 444.71 421.00 L 445.30 414.66 C446.24,404.58 444.40,385.60 441.50,375.50 C431.36,340.23 406.93,320.80 369.68,318.40 C350.36,317.15 329.89,321.19 314.55,329.29 C310.91,331.21 305.08,335.87 299.90,340.99 C287.74,353.03 281.58,364.24 276.43,383.69 C274.24,391.98 273.83,395.68 273.80,407.50 C273.75,435.61 281.35,457.69 296.77,474.19 C315.41,494.13 348.47,503.88 379.25,498.51 ZM 249.00 370.50 L 249.00 245.00 L 222.00 245.00 L 195.00 245.00 L 195.00 369.83 C195.00,438.49 195.30,494.97 195.67,495.33 C196.03,495.70 208.18,496.00 222.67,496.00 L 249.00 496.00 L 249.00 370.50 ZM 1193.75 495.06 L 1197.00 495.00 L 1197.00 409.46 L 1197.00 323.92 L 1188.75 324.21 L 1180.50 324.50 L 1180.24 409.44 C1180.04,476.72 1180.25,494.54 1181.24,495.19 C1181.93,495.63 1184.30,495.80 1186.50,495.56 C1188.70,495.32 1191.96,495.10 1193.75,495.06 ZM 524.77 270.23 L 525.03 243.97 L 497.77 244.23 L 470.50 244.50 L 470.23 269.93 C470.03,289.60 470.25,295.54 471.23,296.17 C471.93,296.62 484.20,296.88 498.50,296.74 L 524.50 296.50 L 524.77 270.23 ZM 1197.78 272.75 L 1198.05 258.00 L 1188.53 258.00 L 1179.00 258.00 L 1179.00 273.04 L 1179.00 288.08 L 1188.25 287.79 L 1197.50 287.50 L 1197.78 272.75 ZM 455.00 566.00 L 455.00 559.00 L 540.50 559.00 L 626.00 559.00 L 626.00 566.00 L 626.00 573.00 L 540.50 573.00 L 455.00 573.00 L 455.00 566.00 ZM 630.00 565.95 L 630.00 558.96 L 670.25 559.24 C710.17,559.53 710.59,559.55 721.50,562.24 C734.74,565.50 766.00,571.00 771.31,571.00 C773.50,571.00 774.86,571.41 774.52,571.96 C774.15,572.57 747.06,572.93 701.96,572.93 L 630.00 572.94 L 630.00 565.95 ZM 565.51 554.21 C560.56,554.05 556.11,553.51 555.61,553.01 C555.07,552.47 555.37,551.08 556.36,549.57 L 558.02 547.03 L 601.26 547.27 L 644.50 547.50 L 644.22 549.98 C644.07,551.34 643.62,552.76 643.22,553.13 C642.45,553.84 580.65,554.70 565.51,554.21 ZM 648.83 550.35 L 649.25 546.70 L 668.08 547.30 C683.55,547.79 687.39,548.21 689.56,549.63 C691.01,550.58 694.29,551.92 696.85,552.61 C700.91,553.71 698.11,553.87 674.95,553.93 L 648.40 554.00 L 648.83 550.35 ZM 549.62 546.78 C548.81,545.53 544.92,533.03 540.98,519.00 C537.05,504.98 531.82,486.58 529.37,478.11 C525.76,465.64 524.97,461.51 525.21,456.30 L 525.50 449.88 L 530.37 466.69 C545.80,519.95 553.00,545.35 553.00,546.54 C553.00,548.97 551.11,549.11 549.62,546.78 ZM 662.00 537.48 C648.16,530.31 644.96,530.18 635.93,536.49 C632.39,538.96 629.16,540.98 628.75,540.99 C626.73,541.02 628.41,537.01 631.75,533.81 C636.75,529.02 640.73,527.15 647.97,526.16 C654.44,525.27 655.57,524.74 654.54,523.07 C653.32,521.09 644.45,521.88 638.89,524.46 C633.28,527.06 631.87,527.06 634.02,524.48 C637.37,520.44 641.68,518.50 649.49,517.49 C655.44,516.73 657.50,516.08 657.50,514.98 C657.50,513.81 656.16,513.54 651.00,513.68 C644.95,513.85 644.67,513.77 647.00,512.47 C648.38,511.70 652.07,511.05 655.22,511.04 C658.45,511.02 662.47,510.27 664.48,509.31 C667.97,507.64 668.13,507.67 675.76,510.90 C680.02,512.71 685.42,514.87 687.77,515.69 L 692.03 517.20 L 689.19 520.43 C685.59,524.53 683.61,531.56 684.23,537.99 L 684.71 543.00 L 678.60 542.96 C673.21,542.93 671.29,542.29 662.00,537.48 ZM 709.20 520.23 C713.67,515.38 718.42,514.05 731.50,513.98 C738.10,513.94 748.67,513.30 755.00,512.54 C761.33,511.79 766.63,511.30 766.80,511.47 C767.63,512.29 765.60,516.94 764.16,517.50 C763.25,517.86 752.36,518.57 739.97,519.08 C727.36,519.59 715.12,520.60 712.17,521.37 L 706.90 522.73 L 709.20 520.23 ZM 771.00 513.21 C771.00,511.13 772.33,505.16 773.96,499.96 C776.51,491.78 777.55,489.89 781.56,486.00 L 786.21 481.50 L 785.48 485.00 C783.45,494.84 773.70,517.00 771.40,517.00 C771.18,517.00 771.00,515.29 771.00,513.21 ZM 700.00 512.10 C700.00,510.44 706.96,505.08 712.75,502.28 C717.59,499.94 719.68,499.52 726.00,499.63 C732.20,499.74 748.18,502.85 749.55,504.21 C749.75,504.42 749.68,505.51 749.38,506.65 C748.89,508.52 747.83,508.76 737.72,509.34 C727.64,509.92 726.41,509.80 724.55,508.06 C720.48,504.26 717.56,504.43 710.18,508.89 C703.64,512.85 700.00,513.99 700.00,512.10 ZM 693.08 510.14 C691.43,507.06 680.93,470.69 681.37,469.55 C681.59,468.97 682.13,469.40 682.56,470.50 C683.00,471.60 684.39,474.08 685.64,476.00 C688.43,480.28 696.00,504.20 696.00,508.72 C696.00,512.34 694.61,513.02 693.08,510.14 ZM 638.50 507.00 C637.12,504.76 640.38,504.03 651.83,504.02 C660.46,504.00 663.07,504.30 662.75,505.25 C662.49,506.02 660.24,506.56 656.92,506.65 C653.94,506.74 648.74,507.12 645.38,507.51 C640.98,508.02 639.04,507.88 638.50,507.00 ZM 697.55 495.76 C694.44,485.56 694.42,485.12 697.25,487.71 C699.76,490.01 706.52,493.59 711.95,495.48 L 715.50 496.73 L 708.50 500.06 C704.65,501.89 701.19,503.56 700.80,503.76 C700.42,503.97 698.96,500.37 697.55,495.76 ZM 583.67 498.33 C581.98,496.65 583.46,496.00 589.00,496.00 C593.67,496.00 595.00,496.33 595.00,497.50 C595.00,498.65 593.74,499.00 589.67,499.00 C586.73,499.00 584.03,498.70 583.67,498.33 ZM 618.00 496.50 C618.00,495.26 619.89,495.00 629.00,495.00 C638.11,495.00 640.00,495.26 640.00,496.50 C640.00,497.74 638.11,498.00 629.00,498.00 C619.89,498.00 618.00,497.74 618.00,496.50 ZM 645.00 467.50 C645.00,466.25 646.94,466.00 656.50,466.00 C666.06,466.00 668.00,466.25 668.00,467.50 C668.00,468.75 666.06,469.00 656.50,469.00 C646.94,469.00 645.00,468.75 645.00,467.50 ZM 748.78 462.91 C741.69,461.88 738.19,460.11 734.20,455.58 C727.64,448.10 727.45,436.47 733.74,428.13 C738.80,421.43 750.42,418.42 773.43,417.85 L 783.37 417.60 L 784.32 420.47 C784.95,422.35 784.89,426.47 784.16,432.40 C781.37,455.06 768.87,465.85 748.78,462.91 ZM 673.23 444.00 C671.43,438.23 669.97,432.81 669.98,431.97 C669.99,431.13 669.30,429.44 668.44,428.22 C666.90,426.02 666.65,426.00 639.94,426.00 C614.37,426.00 613.00,425.91 613.00,424.14 C613.00,422.58 614.07,422.19 619.75,421.65 C630.19,420.67 664.57,420.89 667.38,421.96 C668.76,422.48 670.61,423.99 671.47,425.32 C674.28,429.61 677.11,441.87 676.79,448.40 L 676.50 454.50 L 673.23 444.00 ZM 525.00 423.50 L 525.00 421.00 L 538.38 421.00 C554.52,421.00 558.00,421.55 558.00,424.12 C558.00,425.88 556.97,426.00 541.50,426.00 L 525.00 426.00 L 525.00 423.50 ZM 827.47 345.96 C826.64,344.61 828.52,342.36 831.03,341.70 C833.41,341.08 833.51,341.83 831.44,344.78 C829.75,347.20 828.48,347.58 827.47,345.96 ZM 824.37 338.52 C823.72,336.82 827.35,328.78 829.63,326.90 C830.87,325.86 831.33,325.90 832.11,327.06 C833.80,329.58 832.27,335.33 829.28,337.75 C826.01,340.38 825.14,340.52 824.37,338.52 ZM 840.00 308.85 C840.00,306.16 834.42,296.89 832.51,296.41 C831.35,296.12 827.15,297.41 822.79,299.40 C818.57,301.32 812.50,303.44 809.31,304.10 C803.96,305.20 803.16,305.12 799.19,303.09 C795.54,301.23 794.34,299.78 791.44,293.72 C789.55,289.78 788.00,286.04 788.00,285.40 C788.00,284.76 789.30,283.71 790.88,283.05 C792.47,282.39 795.01,280.55 796.54,278.96 C798.90,276.50 799.07,275.97 797.69,275.44 C796.77,275.08 794.76,275.74 793.05,276.97 C789.39,279.57 785.09,280.06 783.94,278.00 C783.47,277.17 782.21,274.39 781.13,271.82 C779.41,267.70 778.64,266.98 774.84,265.90 C767.75,263.89 767.69,263.69 771.11,253.00 C773.80,244.59 774.10,242.52 773.66,235.00 C773.39,230.32 772.44,224.47 771.55,222.00 C769.55,216.40 768.61,202.46 769.69,194.50 L 770.50 188.50 L 777.50 187.87 C781.35,187.52 786.30,186.74 788.50,186.13 C790.70,185.51 793.65,185.01 795.05,185.01 C797.55,185.00 797.59,185.10 797.19,191.40 C796.60,200.60 798.14,204.30 804.52,209.01 C811.04,213.83 812.25,215.51 815.13,223.66 C816.82,228.44 817.96,230.20 819.62,230.62 C823.91,231.70 825.78,230.23 826.93,224.91 C828.32,218.43 830.43,214.42 833.53,212.39 C837.17,210.00 841.35,212.04 844.79,217.89 C850.24,227.15 847.30,243.73 839.55,247.41 C837.71,248.28 835.70,249.00 835.10,249.00 C833.46,249.00 833.77,251.98 835.48,252.63 C836.30,252.94 838.95,252.52 841.37,251.70 L 845.78 250.20 L 850.14 254.64 C858.13,262.79 871.67,267.76 883.08,266.73 L 888.70 266.22 L 892.36 275.19 C894.37,280.12 895.79,284.53 895.51,284.98 C895.23,285.43 892.64,286.36 889.75,287.05 C878.71,289.68 856.22,300.03 845.02,307.64 C841.14,310.27 840.00,310.55 840.00,308.85 ZM 783.42 239.39 C785.23,238.70 785.50,234.46 784.00,230.50 C783.26,228.55 782.41,227.94 780.75,228.18 C778.82,228.45 778.53,229.04 778.72,232.26 C778.92,235.64 780.46,240.00 781.45,240.00 C781.66,240.00 782.55,239.73 783.42,239.39 ZM 790.12 215.75 C790.92,214.32 790.58,213.78 788.30,212.88 C783.19,210.86 777.53,210.67 774.17,212.41 C771.36,213.86 770.19,215.86 771.42,217.08 C771.65,217.31 775.73,217.50 780.49,217.50 C787.70,217.50 789.30,217.21 790.12,215.75 ZM 328.00 386.68 C328.00,383.03 330.98,373.91 333.68,369.29 C340.14,358.24 353.25,352.64 366.78,355.14 C379.54,357.50 386.97,364.77 390.64,378.50 C391.38,381.25 391.98,384.74 391.99,386.25 L 392.00 389.00 L 360.00 389.00 L 328.00 389.00 L 328.00 386.68 Z" fill="rgb(253,253,252)"/>
</g>
</svg>